<svg version="1.1" id="Layer_1" xmlns="http://www.w3.org/2000/svg" xmlns:xlink="http://www.w3.org/1999/xlink" x="0px" y="0px"
	 width="100%" viewBox="0 0 2000 2104" enable-background="new 0 0 2000 2104" xml:space="preserve">
<path fill="#10B981" opacity="1.000000" stroke="none" 
	d="
M200.980896,2081.290527 
	C142.869278,2068.964600 96.858871,2039.303223 62.813854,1991.697632 
	C40.685337,1960.755249 27.374609,1926.181274 23.857542,1888.152466 
	C22.787077,1876.578125 22.281939,1864.909790 22.278610,1853.284302 
	C22.194830,1560.648071 22.143368,1268.011963 22.289906,975.375854 
	C22.311111,933.027710 34.101929,893.762695 57.168129,858.248047 
	C90.199371,807.390381 123.753540,756.872498 157.083725,706.209045 
	C190.597076,655.267090 224.103302,604.320557 257.624146,553.383545 
	C291.877625,501.333160 326.150696,449.295685 360.404877,397.245728 
	C393.743225,346.587463 427.078308,295.927002 460.396271,245.255356 
	C486.391052,205.721222 512.465393,166.238846 538.310120,126.606819 
	C573.460022,72.705696 622.601440,39.546917 685.666077,27.316046 
	C697.357666,25.048553 709.461365,23.933842 721.375671,23.927885 
	C1070.005981,23.753584 1418.639038,23.049780 1767.264893,24.310528 
	C1853.699585,24.623104 1918.017822,67.200470 1959.603882,143.107025 
	C1977.267700,175.348755 1984.364624,210.118713 1984.341797,246.900421 
	C1984.121338,601.863342 1984.189453,956.826416 1984.229858,1311.789429 
	C1984.236450,1369.492065 1963.851196,1419.064209 1925.190430,1461.443848 
	C1919.130737,1468.086426 1912.836426,1474.523926 1906.478027,1480.883667 
	C1728.795898,1658.603516 1551.090820,1836.300415 1373.390991,2014.002563 
	C1358.979736,2028.414062 1343.759277,2041.889771 1326.188599,2052.343506 
	C1295.998535,2070.304932 1263.724243,2082.212158 1228.329834,2084.204834 
	C1213.720947,2085.027344 1199.080322,2085.723389 1184.453857,2085.727539 
	C878.819031,2085.813965 573.184204,2085.758057 267.549438,2085.865479 
	C245.506760,2085.873291 223.566086,2085.371094 200.980896,2081.290527 
M1808.997803,294.476257 
	C1717.343262,294.592743 1625.688721,294.708771 1534.034180,294.847839 
	C1533.752808,294.848267 1533.458252,295.166107 1533.194702,295.368103 
	C1532.942017,295.561768 1532.721680,295.797668 1531.804932,296.647644 
	C1524.164307,431.226624 1516.485596,566.477722 1508.806396,701.736694 
	C1500.988647,701.736694 1494.518799,701.736694 1487.659302,701.736694 
	C1478.907593,565.813354 1470.201416,430.598450 1461.474731,295.063263 
	C1347.224487,295.063263 1234.071411,295.063263 1119.951172,295.063263 
	C1162.924805,527.163940 1205.761230,758.524109 1248.686279,990.362854 
	C1406.392334,990.362854 1563.576294,990.362854 1721.417114,990.362854 
	C1763.053223,758.540649 1804.630493,527.045410 1846.400757,294.476257 
	C1833.568604,294.476257 1822.282227,294.476257 1808.997803,294.476257 
M770.182007,608.999939 
	C770.045288,648.651184 769.909729,688.302368 769.747864,727.953491 
	C769.746765,728.211853 769.395508,728.481934 769.181030,728.722717 
	C768.959961,728.970947 768.705994,729.189880 768.065674,729.809143 
	C734.742554,729.183350 701.605408,724.940735 668.875549,713.259521 
	C668.875549,797.619263 668.875549,880.763855 668.875549,965.383240 
	C681.904358,970.200989 694.960266,976.204102 708.640930,979.886230 
	C771.533203,996.813477 835.761536,1002.164001 900.702332,1000.575806 
	C933.486328,999.774048 965.784241,995.845398 997.184448,985.980957 
	C1054.942749,967.836121 1093.410522,930.697449 1109.325684,871.586426 
	C1115.952881,846.972046 1118.006226,821.797180 1117.995728,796.361511 
	C1117.927856,632.712646 1117.961670,469.063751 1117.962158,305.414856 
	C1117.962158,302.170441 1117.962158,298.926025 1117.962158,295.892212 
	C1106.657104,293.642700 777.916382,294.039612 770.182007,296.283112 
	C770.182007,399.738190 770.182007,503.369019 770.182007,608.999939 
z"/>
<path fill="#FEFFFF" opacity="1.000000" stroke="none" 
	d="
M1809.996826,294.476257 
	C1822.282227,294.476257 1833.568604,294.476257 1846.400757,294.476257 
	C1804.630493,527.045410 1763.053223,758.540649 1721.417114,990.362854 
	C1563.576294,990.362854 1406.392334,990.362854 1248.686279,990.362854 
	C1205.761230,758.524109 1162.924805,527.163940 1119.951172,295.063263 
	C1234.071411,295.063263 1347.224487,295.063263 1461.474731,295.063263 
	C1470.201416,430.598450 1478.907593,565.813354 1487.659302,701.736694 
	C1494.518799,701.736694 1500.988647,701.736694 1508.806396,701.736694 
	C1516.485596,566.477722 1524.164307,431.226624 1531.804932,296.647644 
	C1532.721680,295.797668 1532.942017,295.561768 1533.194702,295.368103 
	C1533.458252,295.166107 1533.752808,294.848267 1534.034180,294.847839 
	C1625.688721,294.708771 1717.343262,294.592743 1809.996826,294.476257 
z"/>
<path fill="#FEFFFF" opacity="1.000000" stroke="none" 
	d="
M770.182007,607.999878 
	C770.182007,503.369019 770.182007,399.738190 770.182007,296.283112 
	C777.916382,294.039612 1106.657104,293.642700 1117.962158,295.892212 
	C1117.962158,298.926025 1117.962158,302.170441 1117.962158,305.414856 
	C1117.961670,469.063751 1117.927856,632.712646 1117.995728,796.361511 
	C1118.006226,821.797180 1115.952881,846.972046 1109.325684,871.586426 
	C1093.410522,930.697449 1054.942749,967.836121 997.184448,985.980957 
	C965.784241,995.845398 933.486328,999.774048 900.702332,1000.575806 
	C835.761536,1002.164001 771.533203,996.813477 708.640930,979.886230 
	C694.960266,976.204102 681.904358,970.200989 668.875549,965.383240 
	C668.875549,880.763855 668.875549,797.619263 668.875549,713.259521 
	C701.605408,724.940735 734.742554,729.183350 768.065674,729.809143 
	C768.705994,729.189880 768.959961,728.970947 769.181030,728.722717 
	C769.395508,728.481934 769.746765,728.211853 769.747864,727.953491 
	C769.909729,688.302368 770.045288,648.651184 770.182007,607.999878 
z"/>
</svg>